<svg width="40" height="40" viewBox="0 0 40 40" fill="none" xmlns="http://www.w3.org/2000/svg">
<circle cx="20" cy="20" r="20" fill="#7AC751"/>
<path d="M15.7414 19.6667C15.6481 19.6667 15.5687 19.634 15.5034 19.5687C15.4381 19.5033 15.4054 19.424 15.4054 19.3307V12.0787L13.2774 13.7167C13.2214 13.7633 13.1561 13.7867 13.0814 13.7867C12.9694 13.7867 12.8761 13.7353 12.8014 13.6327L12.2134 12.8767C12.1667 12.802 12.1434 12.732 12.1434 12.6667C12.1434 12.5547 12.1947 12.4613 12.2974 12.3867L15.4334 9.96467C15.5174 9.89934 15.6341 9.86667 15.7834 9.86667H17.0154C17.1181 9.86667 17.1974 9.89934 17.2534 9.96467C17.3187 10.0207 17.3514 10.1 17.3514 10.2027V19.3307C17.3514 19.424 17.3187 19.5033 17.2534 19.5687C17.1974 19.634 17.1181 19.6667 17.0154 19.6667H15.7414ZM22.6279 19.8207C21.8532 19.8207 21.1859 19.69 20.6259 19.4287C20.0752 19.1673 19.6505 18.822 19.3519 18.3927C19.0625 17.9633 18.9085 17.5013 18.8899 17.0067V16.9787C18.8899 16.904 18.9179 16.8433 18.9739 16.7967C19.0299 16.75 19.0999 16.7267 19.1839 16.7267H20.4859C20.7005 16.7267 20.8405 16.82 20.9059 17.0067C21.0365 17.4173 21.2512 17.7207 21.5499 17.9167C21.8579 18.1127 22.2172 18.2107 22.6279 18.2107C23.1505 18.2107 23.5845 18.052 23.9299 17.7347C24.2845 17.4173 24.4619 16.974 24.4619 16.4047C24.4619 15.9007 24.2845 15.49 23.9299 15.1727C23.5845 14.8553 23.1505 14.6967 22.6279 14.6967C22.3479 14.6967 22.1192 14.734 21.9419 14.8087C21.7645 14.8833 21.5919 14.986 21.4239 15.1167C21.3119 15.2007 21.2232 15.2613 21.1579 15.2987C21.1019 15.3267 21.0319 15.3407 20.9479 15.3407H19.6599C19.5759 15.3407 19.5012 15.3127 19.4359 15.2567C19.3799 15.1913 19.3519 15.1167 19.3519 15.0327L19.8419 10.2447C19.8512 10.1327 19.8885 10.044 19.9539 9.97867C20.0285 9.904 20.1219 9.86667 20.2339 9.86667H25.4979C25.5912 9.86667 25.6705 9.89934 25.7359 9.96467C25.8012 10.03 25.8339 10.1093 25.8339 10.2027V11.1407C25.8339 11.234 25.8012 11.3133 25.7359 11.3787C25.6705 11.444 25.5912 11.4767 25.4979 11.4767H21.4519L21.2279 13.7587C21.6852 13.4413 22.2965 13.2827 23.0619 13.2827C23.6685 13.2827 24.2285 13.4133 24.7419 13.6747C25.2645 13.9267 25.6799 14.2953 25.9879 14.7807C26.2959 15.2567 26.4499 15.812 26.4499 16.4467C26.4499 17.128 26.2912 17.7253 25.9739 18.2387C25.6565 18.7427 25.2085 19.1347 24.6299 19.4147C24.0605 19.6853 23.3932 19.8207 22.6279 19.8207Z" fill="white"/>
<path d="M13.0505 30.4444C13.0105 30.4444 12.9765 30.4324 12.9485 30.4084C12.9245 30.3804 12.9125 30.3464 12.9125 30.3064V26.3884C12.9125 26.3444 12.9245 26.3104 12.9485 26.2864C12.9765 26.2584 13.0105 26.2444 13.0505 26.2444H14.4125C15.0165 26.2444 15.4525 26.3804 15.7205 26.6524C15.9885 26.9204 16.1285 27.3264 16.1405 27.8704C16.1445 27.9864 16.1465 28.1424 16.1465 28.3384C16.1465 28.5344 16.1445 28.6924 16.1405 28.8124C16.1285 29.1924 16.0645 29.5024 15.9485 29.7424C15.8365 29.9784 15.6585 30.1544 15.4145 30.2704C15.1705 30.3864 14.8465 30.4444 14.4425 30.4444H13.0505ZM14.4125 29.9344C14.6885 29.9344 14.9065 29.8964 15.0665 29.8204C15.2305 29.7444 15.3485 29.6244 15.4205 29.4604C15.4965 29.2924 15.5385 29.0684 15.5465 28.7884C15.5545 28.5484 15.5585 28.3984 15.5585 28.3384C15.5585 28.2744 15.5545 28.1264 15.5465 27.8944C15.5385 27.4984 15.4445 27.2104 15.2645 27.0304C15.0845 26.8464 14.7905 26.7544 14.3825 26.7544H13.5005V29.9344H14.4125ZM16.727 30.4444C16.695 30.4444 16.667 30.4324 16.643 30.4084C16.619 30.3844 16.607 30.3564 16.607 30.3244C16.607 30.2924 16.609 30.2704 16.613 30.2584L18.101 26.3764C18.133 26.2884 18.197 26.2444 18.293 26.2444H18.701C18.797 26.2444 18.861 26.2884 18.893 26.3764L20.375 30.2584L20.387 30.3244C20.387 30.3564 20.375 30.3844 20.351 30.4084C20.327 30.4324 20.299 30.4444 20.267 30.4444H19.961C19.917 30.4444 19.883 30.4344 19.859 30.4144C19.835 30.3904 19.819 30.3664 19.811 30.3424L19.481 29.4904H17.513L17.183 30.3424C17.175 30.3664 17.157 30.3904 17.129 30.4144C17.105 30.4344 17.073 30.4444 17.033 30.4444H16.727ZM19.307 28.9744L18.497 26.8444L17.687 28.9744H19.307ZM21.8849 30.4444C21.8449 30.4444 21.8109 30.4324 21.7829 30.4084C21.7589 30.3804 21.7469 30.3464 21.7469 30.3064V28.8904L20.3009 26.4424C20.3009 26.4344 20.2989 26.4224 20.2949 26.4064C20.2869 26.3904 20.2829 26.3764 20.2829 26.3644C20.2829 26.3324 20.2949 26.3044 20.3189 26.2804C20.3429 26.2564 20.3709 26.2444 20.4029 26.2444H20.7149C20.7829 26.2444 20.8349 26.2784 20.8709 26.3464L22.0409 28.2904L23.2109 26.3464C23.2549 26.2784 23.3089 26.2444 23.3729 26.2444H23.6789C23.7149 26.2444 23.7449 26.2564 23.7689 26.2804C23.7929 26.3044 23.8049 26.3324 23.8049 26.3644C23.8049 26.3844 23.7969 26.4104 23.7809 26.4424L22.3409 28.8904V30.3064C22.3409 30.3464 22.3269 30.3804 22.2989 30.4084C22.2709 30.4324 22.2369 30.4444 22.1969 30.4444H21.8849ZM25.749 30.5044C25.417 30.5044 25.129 30.4524 24.885 30.3484C24.645 30.2444 24.461 30.1084 24.333 29.9404C24.205 29.7684 24.137 29.5844 24.129 29.3884C24.129 29.3564 24.141 29.3284 24.165 29.3044C24.193 29.2764 24.225 29.2624 24.261 29.2624H24.567C24.643 29.2624 24.695 29.3024 24.723 29.3824C24.759 29.5504 24.861 29.6944 25.029 29.8144C25.201 29.9344 25.441 29.9944 25.749 29.9944C26.081 29.9944 26.331 29.9364 26.499 29.8204C26.667 29.7004 26.751 29.5344 26.751 29.3224C26.751 29.1864 26.709 29.0764 26.625 28.9924C26.545 28.9084 26.425 28.8344 26.265 28.7704C26.105 28.7064 25.865 28.6264 25.545 28.5304C25.233 28.4424 24.985 28.3484 24.801 28.2484C24.617 28.1484 24.479 28.0244 24.387 27.8764C24.295 27.7284 24.249 27.5424 24.249 27.3184C24.249 27.1024 24.307 26.9084 24.423 26.7364C24.543 26.5644 24.713 26.4304 24.933 26.3344C25.153 26.2344 25.415 26.1844 25.719 26.1844C26.031 26.1844 26.299 26.2404 26.523 26.3524C26.747 26.4604 26.917 26.5984 27.033 26.7664C27.149 26.9344 27.211 27.1024 27.219 27.2704C27.219 27.3024 27.207 27.3304 27.183 27.3544C27.163 27.3784 27.133 27.3904 27.093 27.3904H26.775C26.691 27.3904 26.639 27.3524 26.619 27.2764C26.595 27.1084 26.501 26.9704 26.337 26.8624C26.173 26.7504 25.967 26.6944 25.719 26.6944C25.447 26.6944 25.233 26.7464 25.077 26.8504C24.921 26.9544 24.843 27.1084 24.843 27.3124C24.843 27.4484 24.879 27.5604 24.951 27.6484C25.027 27.7364 25.141 27.8144 25.293 27.8824C25.445 27.9464 25.667 28.0204 25.959 28.1044C26.299 28.1964 26.567 28.2924 26.763 28.3924C26.959 28.4884 27.105 28.6104 27.201 28.7584C27.297 28.9024 27.345 29.0864 27.345 29.3104C27.345 29.6824 27.201 29.9744 26.913 30.1864C26.625 30.3984 26.237 30.5044 25.749 30.5044Z" fill="white"/>
</svg>
