<svg width="40" height="40" viewBox="0 0 40 40" fill="none" xmlns="http://www.w3.org/2000/svg">
<circle cx="20" cy="20" r="20" fill="#7AC751"/>
<path d="M15.8419 19.8067C14.6006 19.8067 13.6719 19.4613 13.0559 18.7707C12.4492 18.08 12.1179 17.1747 12.0619 16.0547C12.0526 15.8027 12.0479 15.3733 12.0479 14.7667C12.0479 14.1507 12.0526 13.712 12.0619 13.4507C12.1086 12.3493 12.4446 11.4533 13.0699 10.7627C13.6952 10.072 14.6192 9.72667 15.8419 9.72667C17.0739 9.72667 18.0026 10.072 18.6279 10.7627C19.2532 11.4533 19.5846 12.3493 19.6219 13.4507C19.6406 13.712 19.6499 14.1507 19.6499 14.7667C19.6499 15.3733 19.6406 15.8027 19.6219 16.0547C19.5752 17.1747 19.2439 18.08 18.6279 18.7707C18.0212 19.4613 17.0926 19.8067 15.8419 19.8067ZM15.8419 18.1967C16.4299 18.1967 16.8686 18.0053 17.1579 17.6227C17.4472 17.2307 17.6012 16.6847 17.6199 15.9847C17.6386 15.4433 17.6479 15.0327 17.6479 14.7527C17.6479 14.4447 17.6386 14.0387 17.6199 13.5347C17.6012 12.844 17.4472 12.3027 17.1579 11.9107C16.8686 11.5187 16.4299 11.3227 15.8419 11.3227C15.2632 11.3227 14.8246 11.5187 14.5259 11.9107C14.2366 12.3027 14.0826 12.844 14.0639 13.5347C14.0546 13.7867 14.0499 14.1927 14.0499 14.7527C14.0499 15.3033 14.0546 15.714 14.0639 15.9847C14.0826 16.6847 14.2366 17.2307 14.5259 17.6227C14.8246 18.0053 15.2632 18.1967 15.8419 18.1967ZM25.0431 19.8067C24.2311 19.8067 23.5311 19.6807 22.9431 19.4287C22.3644 19.1673 21.9211 18.808 21.6131 18.3507C21.3051 17.8933 21.1511 17.3707 21.1511 16.7827C21.1511 16.26 21.2817 15.798 21.5431 15.3967C21.8044 14.986 22.1544 14.6733 22.5931 14.4587C22.2477 14.244 21.9771 13.9687 21.7811 13.6327C21.5944 13.2873 21.5011 12.8953 21.5011 12.4567C21.5011 11.6353 21.8091 10.9773 22.4251 10.4827C23.0504 9.97867 23.9231 9.72667 25.0431 9.72667C26.1537 9.72667 27.0171 9.974 27.6331 10.4687C28.2491 10.9633 28.5571 11.6213 28.5571 12.4427C28.5571 12.8813 28.4637 13.2733 28.2771 13.6187C28.0997 13.9547 27.8384 14.2347 27.4931 14.4587C27.9411 14.6733 28.2911 14.986 28.5431 15.3967C28.8044 15.798 28.9351 16.2647 28.9351 16.7967C28.9351 17.3847 28.7811 17.9073 28.4731 18.3647C28.1651 18.822 27.7171 19.1767 27.1291 19.4287C26.5411 19.6807 25.8457 19.8067 25.0431 19.8067ZM25.0431 13.8567C25.5284 13.8473 25.9297 13.7213 26.2471 13.4787C26.5737 13.236 26.7371 12.9187 26.7371 12.5267C26.7371 12.116 26.5784 11.7893 26.2611 11.5467C25.9437 11.304 25.5377 11.1827 25.0431 11.1827C24.5484 11.1827 24.1424 11.304 23.8251 11.5467C23.5077 11.7893 23.3491 12.116 23.3491 12.5267C23.3491 12.928 23.5077 13.25 23.8251 13.4927C24.1424 13.7353 24.5484 13.8567 25.0431 13.8567ZM25.0431 18.3507C25.5937 18.3507 26.0557 18.2107 26.4291 17.9307C26.8024 17.6413 26.9891 17.2633 26.9891 16.7967C26.9891 16.33 26.8024 15.9567 26.4291 15.6767C26.0557 15.3873 25.5937 15.2427 25.0431 15.2427C24.4831 15.2427 24.0164 15.3827 23.6431 15.6627C23.2791 15.9427 23.0971 16.3207 23.0971 16.7967C23.0971 17.2727 23.2791 17.6507 23.6431 17.9307C24.0164 18.2107 24.4831 18.3507 25.0431 18.3507Z" fill="white"/>
<path d="M14.8789 30.4444C14.8389 30.4444 14.8049 30.4324 14.7769 30.4084C14.7529 30.3804 14.7409 30.3464 14.7409 30.3064V26.3884C14.7409 26.3444 14.7529 26.3104 14.7769 26.2864C14.8049 26.2584 14.8389 26.2444 14.8789 26.2444H15.1849C15.2289 26.2444 15.2629 26.2584 15.2869 26.2864C15.3149 26.3104 15.3289 26.3444 15.3289 26.3884V28.0444H17.3929V26.3884C17.3929 26.3444 17.4049 26.3104 17.4289 26.2864C17.4569 26.2584 17.4909 26.2444 17.5309 26.2444H17.8369C17.8809 26.2444 17.9149 26.2584 17.9389 26.2864C17.9669 26.3104 17.9809 26.3444 17.9809 26.3884V30.3064C17.9809 30.3464 17.9669 30.3804 17.9389 30.4084C17.9109 30.4324 17.8769 30.4444 17.8369 30.4444H17.5309C17.4909 30.4444 17.4569 30.4324 17.4289 30.4084C17.4049 30.3804 17.3929 30.3464 17.3929 30.3064V28.5844H15.3289V30.3064C15.3289 30.3464 15.3149 30.3804 15.2869 30.4084C15.2589 30.4324 15.2249 30.4444 15.1849 30.4444H14.8789ZM19.1921 30.4444C19.1521 30.4444 19.1181 30.4324 19.0901 30.4084C19.0661 30.3804 19.0541 30.3464 19.0541 30.3064V26.3884C19.0541 26.3444 19.0661 26.3104 19.0901 26.2864C19.1181 26.2584 19.1521 26.2444 19.1921 26.2444H20.6561C21.1161 26.2444 21.4761 26.3524 21.7361 26.5684C21.9961 26.7844 22.1261 27.0964 22.1261 27.5044C22.1261 27.8084 22.0501 28.0584 21.8981 28.2544C21.7501 28.4504 21.5401 28.5864 21.2681 28.6624L22.1921 30.2584C22.2041 30.2824 22.2101 30.3044 22.2101 30.3244C22.2101 30.3564 22.1961 30.3844 22.1681 30.4084C22.1441 30.4324 22.1161 30.4444 22.0841 30.4444H21.7961C21.7361 30.4444 21.6881 30.4304 21.6521 30.4024C21.6201 30.3744 21.5901 30.3344 21.5621 30.2824L20.6921 28.7584H19.6421V30.3064C19.6421 30.3464 19.6281 30.3804 19.6001 30.4084C19.5721 30.4324 19.5381 30.4444 19.4981 30.4444H19.1921ZM20.6321 28.2484C21.2281 28.2484 21.5261 27.9984 21.5261 27.4984C21.5261 26.9984 21.2281 26.7484 20.6321 26.7484H19.6421V28.2484H20.6321ZM24.3658 30.5044C24.0338 30.5044 23.7458 30.4524 23.5018 30.3484C23.2618 30.2444 23.0778 30.1084 22.9498 29.9404C22.8218 29.7684 22.7538 29.5844 22.7458 29.3884C22.7458 29.3564 22.7578 29.3284 22.7818 29.3044C22.8098 29.2764 22.8418 29.2624 22.8778 29.2624H23.1838C23.2598 29.2624 23.3118 29.3024 23.3398 29.3824C23.3758 29.5504 23.4778 29.6944 23.6458 29.8144C23.8178 29.9344 24.0578 29.9944 24.3658 29.9944C24.6978 29.9944 24.9478 29.9364 25.1158 29.8204C25.2838 29.7004 25.3678 29.5344 25.3678 29.3224C25.3678 29.1864 25.3258 29.0764 25.2418 28.9924C25.1618 28.9084 25.0418 28.8344 24.8818 28.7704C24.7218 28.7064 24.4818 28.6264 24.1618 28.5304C23.8498 28.4424 23.6018 28.3484 23.4178 28.2484C23.2338 28.1484 23.0958 28.0244 23.0038 27.8764C22.9118 27.7284 22.8658 27.5424 22.8658 27.3184C22.8658 27.1024 22.9238 26.9084 23.0398 26.7364C23.1598 26.5644 23.3298 26.4304 23.5498 26.3344C23.7698 26.2344 24.0318 26.1844 24.3358 26.1844C24.6478 26.1844 24.9158 26.2404 25.1398 26.3524C25.3638 26.4604 25.5338 26.5984 25.6498 26.7664C25.7658 26.9344 25.8278 27.1024 25.8358 27.2704C25.8358 27.3024 25.8238 27.3304 25.7998 27.3544C25.7798 27.3784 25.7498 27.3904 25.7098 27.3904H25.3918C25.3078 27.3904 25.2558 27.3524 25.2358 27.2764C25.2118 27.1084 25.1178 26.9704 24.9538 26.8624C24.7898 26.7504 24.5838 26.6944 24.3358 26.6944C24.0638 26.6944 23.8498 26.7464 23.6938 26.8504C23.5378 26.9544 23.4598 27.1084 23.4598 27.3124C23.4598 27.4484 23.4958 27.5604 23.5678 27.6484C23.6438 27.7364 23.7578 27.8144 23.9098 27.8824C24.0618 27.9464 24.2838 28.0204 24.5758 28.1044C24.9158 28.1964 25.1838 28.2924 25.3798 28.3924C25.5758 28.4884 25.7218 28.6104 25.8178 28.7584C25.9138 28.9024 25.9618 29.0864 25.9618 29.3104C25.9618 29.6824 25.8178 29.9744 25.5298 30.1864C25.2418 30.3984 24.8538 30.5044 24.3658 30.5044Z" fill="white"/>
</svg>
