<svg width="40" height="40" viewBox="0 0 40 40" fill="none" xmlns="http://www.w3.org/2000/svg">
<circle cx="20" cy="20" r="20" fill="#7AC751"/>
<path d="M11.5872 19.6667C11.4939 19.6667 11.4145 19.634 11.3492 19.5687C11.2839 19.5033 11.2512 19.424 11.2512 19.3307V18.6167C11.2512 18.3647 11.3679 18.1453 11.6012 17.9587L13.8132 15.7607C14.7745 15.0047 15.4419 14.4167 15.8152 13.9967C16.1979 13.5673 16.3892 13.1473 16.3892 12.7367C16.3892 12.298 16.2679 11.9527 16.0252 11.7007C15.7919 11.4487 15.4372 11.3227 14.9612 11.3227C14.4945 11.3227 14.1259 11.4627 13.8552 11.7427C13.5845 12.0133 13.4165 12.368 13.3512 12.8067C13.3232 12.9187 13.2719 13.0027 13.1972 13.0587C13.1225 13.1053 13.0385 13.1287 12.9452 13.1287H11.6992C11.6152 13.1287 11.5452 13.1007 11.4892 13.0447C11.4332 12.9887 11.4052 12.9233 11.4052 12.8487C11.4239 12.298 11.5732 11.7847 11.8532 11.3087C12.1332 10.8233 12.5392 10.436 13.0712 10.1467C13.6032 9.848 14.2285 9.69867 14.9472 9.69867C15.6939 9.69867 16.3239 9.82934 16.8372 10.0907C17.3599 10.3427 17.7519 10.6927 18.0132 11.1407C18.2745 11.5887 18.4052 12.0973 18.4052 12.6667C18.4052 13.292 18.2279 13.8567 17.8732 14.3607C17.5279 14.8647 16.9959 15.406 16.2772 15.9847L14.2892 18.0007H18.2792C18.3819 18.0007 18.4612 18.0333 18.5172 18.0987C18.5825 18.1547 18.6152 18.234 18.6152 18.3367V19.3307C18.6152 19.424 18.5825 19.5033 18.5172 19.5687C18.4612 19.634 18.3819 19.6667 18.2792 19.6667H11.5872ZM23.8812 19.8067C22.6398 19.8067 21.7112 19.4613 21.0952 18.7707C20.4885 18.08 20.1572 17.1747 20.1012 16.0547C20.0918 15.8027 20.0872 15.3733 20.0872 14.7667C20.0872 14.1507 20.0918 13.712 20.1012 13.4507C20.1478 12.3493 20.4838 11.4533 21.1092 10.7627C21.7345 10.072 22.6585 9.72667 23.8812 9.72667C25.1132 9.72667 26.0418 10.072 26.6672 10.7627C27.2925 11.4533 27.6238 12.3493 27.6612 13.4507C27.6798 13.712 27.6892 14.1507 27.6892 14.7667C27.6892 15.3733 27.6798 15.8027 27.6612 16.0547C27.6145 17.1747 27.2832 18.08 26.6672 18.7707C26.0605 19.4613 25.1318 19.8067 23.8812 19.8067ZM23.8812 18.1967C24.4692 18.1967 24.9078 18.0053 25.1972 17.6227C25.4865 17.2307 25.6405 16.6847 25.6592 15.9847C25.6778 15.4433 25.6872 15.0327 25.6872 14.7527C25.6872 14.4447 25.6778 14.0387 25.6592 13.5347C25.6405 12.844 25.4865 12.3027 25.1972 11.9107C24.9078 11.5187 24.4692 11.3227 23.8812 11.3227C23.3025 11.3227 22.8638 11.5187 22.5652 11.9107C22.2758 12.3027 22.1218 12.844 22.1032 13.5347C22.0938 13.7867 22.0892 14.1927 22.0892 14.7527C22.0892 15.3033 22.0938 15.714 22.1032 15.9847C22.1218 16.6847 22.2758 17.2307 22.5652 17.6227C22.8638 18.0053 23.3025 18.1967 23.8812 18.1967Z" fill="white"/>
<path d="M15.4531 30.4444C15.4131 30.4444 15.3791 30.4324 15.3511 30.4084C15.3271 30.3804 15.3151 30.3464 15.3151 30.3064V26.3884C15.3151 26.3444 15.3271 26.3104 15.3511 26.2864C15.3791 26.2584 15.4131 26.2444 15.4531 26.2444H15.7531C15.8171 26.2444 15.8691 26.2764 15.9091 26.3404L17.1751 28.7644L18.4531 26.3404C18.4611 26.3164 18.4771 26.2944 18.5011 26.2744C18.5291 26.2544 18.5631 26.2444 18.6031 26.2444H18.8971C18.9411 26.2444 18.9751 26.2584 18.9991 26.2864C19.0271 26.3104 19.0411 26.3444 19.0411 26.3884V30.3064C19.0411 30.3464 19.0271 30.3804 18.9991 30.4084C18.9711 30.4324 18.9371 30.4444 18.8971 30.4444H18.6031C18.5631 30.4444 18.5291 30.4324 18.5011 30.4084C18.4771 30.3804 18.4651 30.3464 18.4651 30.3064V27.3544L17.4631 29.3104C17.4231 29.3944 17.3591 29.4364 17.2711 29.4364H17.0851C16.9971 29.4364 16.9331 29.3944 16.8931 29.3104L15.8851 27.3544V30.3064C15.8851 30.3464 15.8711 30.3804 15.8431 30.4084C15.8191 30.4324 15.7871 30.4444 15.7471 30.4444H15.4531ZM20.2468 30.4444C20.2068 30.4444 20.1728 30.4324 20.1448 30.4084C20.1208 30.3804 20.1088 30.3464 20.1088 30.3064V26.3824C20.1088 26.3424 20.1208 26.3104 20.1448 26.2864C20.1728 26.2584 20.2068 26.2444 20.2468 26.2444H20.5648C20.6048 26.2444 20.6368 26.2584 20.6608 26.2864C20.6888 26.3104 20.7028 26.3424 20.7028 26.3824V30.3064C20.7028 30.3464 20.6888 30.3804 20.6608 30.4084C20.6368 30.4324 20.6048 30.4444 20.5648 30.4444H20.2468ZM21.9174 30.4444C21.8774 30.4444 21.8434 30.4324 21.8154 30.4084C21.7914 30.3804 21.7794 30.3464 21.7794 30.3064V26.3884C21.7794 26.3444 21.7914 26.3104 21.8154 26.2864C21.8434 26.2584 21.8774 26.2444 21.9174 26.2444H22.1934C22.2654 26.2444 22.3154 26.2724 22.3434 26.3284L24.3354 29.3884V26.3884C24.3354 26.3444 24.3474 26.3104 24.3714 26.2864C24.3994 26.2584 24.4334 26.2444 24.4734 26.2444H24.7614C24.8054 26.2444 24.8394 26.2584 24.8634 26.2864C24.8914 26.3104 24.9054 26.3444 24.9054 26.3884V30.3004C24.9054 30.3404 24.8914 30.3744 24.8634 30.4024C24.8394 30.4304 24.8074 30.4444 24.7674 30.4444H24.4794C24.4194 30.4444 24.3714 30.4164 24.3354 30.3604L22.3494 27.3304V30.3064C22.3494 30.3464 22.3354 30.3804 22.3074 30.4084C22.2794 30.4324 22.2454 30.4444 22.2054 30.4444H21.9174Z" fill="white"/>
</svg>
