<svg width="40" height="40" viewBox="0 0 40 40" fill="none" xmlns="http://www.w3.org/2000/svg">
<circle cx="20" cy="20" r="20" fill="#7AC751"/>
<path d="M15.8596 19.6667C15.7662 19.6667 15.6869 19.634 15.6216 19.5687C15.5562 19.5033 15.5236 19.424 15.5236 19.3307V12.0787L13.3956 13.7167C13.3396 13.7633 13.2742 13.7867 13.1996 13.7867C13.0876 13.7867 12.9942 13.7353 12.9196 13.6327L12.3316 12.8767C12.2849 12.802 12.2616 12.732 12.2616 12.6667C12.2616 12.5547 12.3129 12.4613 12.4156 12.3867L15.5516 9.96467C15.6356 9.89934 15.7522 9.86667 15.9016 9.86667H17.1336C17.2362 9.86667 17.3156 9.89934 17.3716 9.96467C17.4369 10.0207 17.4696 10.1 17.4696 10.2027V19.3307C17.4696 19.424 17.4369 19.5033 17.3716 19.5687C17.3156 19.634 17.2362 19.6667 17.1336 19.6667H15.8596ZM19.428 19.6667C19.3347 19.6667 19.2554 19.634 19.19 19.5687C19.1247 19.5033 19.092 19.424 19.092 19.3307V18.6167C19.092 18.3647 19.2087 18.1453 19.442 17.9587L21.654 15.7607C22.6154 15.0047 23.2827 14.4167 23.656 13.9967C24.0387 13.5673 24.23 13.1473 24.23 12.7367C24.23 12.298 24.1087 11.9527 23.866 11.7007C23.6327 11.4487 23.278 11.3227 22.802 11.3227C22.3354 11.3227 21.9667 11.4627 21.696 11.7427C21.4254 12.0133 21.2574 12.368 21.192 12.8067C21.164 12.9187 21.1127 13.0027 21.038 13.0587C20.9634 13.1053 20.8794 13.1287 20.786 13.1287H19.54C19.456 13.1287 19.386 13.1007 19.33 13.0447C19.274 12.9887 19.246 12.9233 19.246 12.8487C19.2647 12.298 19.414 11.7847 19.694 11.3087C19.974 10.8233 20.38 10.436 20.912 10.1467C21.444 9.848 22.0694 9.69867 22.788 9.69867C23.5347 9.69867 24.1647 9.82934 24.678 10.0907C25.2007 10.3427 25.5927 10.6927 25.854 11.1407C26.1154 11.5887 26.246 12.0973 26.246 12.6667C26.246 13.292 26.0687 13.8567 25.714 14.3607C25.3687 14.8647 24.8367 15.406 24.118 15.9847L22.13 18.0007H26.12C26.2227 18.0007 26.302 18.0333 26.358 18.0987C26.4234 18.1547 26.456 18.234 26.456 18.3367V19.3307C26.456 19.424 26.4234 19.5033 26.358 19.5687C26.302 19.634 26.2227 19.6667 26.12 19.6667H19.428Z" fill="white"/>
<path d="M14.1864 30.5044C13.8544 30.5044 13.5664 30.4524 13.3224 30.3484C13.0824 30.2444 12.8984 30.1084 12.7704 29.9404C12.6424 29.7684 12.5744 29.5844 12.5664 29.3884C12.5664 29.3564 12.5784 29.3284 12.6024 29.3044C12.6304 29.2764 12.6624 29.2624 12.6984 29.2624H13.0044C13.0804 29.2624 13.1324 29.3024 13.1604 29.3824C13.1964 29.5504 13.2984 29.6944 13.4664 29.8144C13.6384 29.9344 13.8784 29.9944 14.1864 29.9944C14.5184 29.9944 14.7684 29.9364 14.9364 29.8204C15.1044 29.7004 15.1884 29.5344 15.1884 29.3224C15.1884 29.1864 15.1464 29.0764 15.0624 28.9924C14.9824 28.9084 14.8624 28.8344 14.7024 28.7704C14.5424 28.7064 14.3024 28.6264 13.9824 28.5304C13.6704 28.4424 13.4224 28.3484 13.2384 28.2484C13.0544 28.1484 12.9164 28.0244 12.8244 27.8764C12.7324 27.7284 12.6864 27.5424 12.6864 27.3184C12.6864 27.1024 12.7444 26.9084 12.8604 26.7364C12.9804 26.5644 13.1504 26.4304 13.3704 26.3344C13.5904 26.2344 13.8524 26.1844 14.1564 26.1844C14.4684 26.1844 14.7364 26.2404 14.9604 26.3524C15.1844 26.4604 15.3544 26.5984 15.4704 26.7664C15.5864 26.9344 15.6484 27.1024 15.6564 27.2704C15.6564 27.3024 15.6444 27.3304 15.6204 27.3544C15.6004 27.3784 15.5704 27.3904 15.5304 27.3904H15.2124C15.1284 27.3904 15.0764 27.3524 15.0564 27.2764C15.0324 27.1084 14.9384 26.9704 14.7744 26.8624C14.6104 26.7504 14.4044 26.6944 14.1564 26.6944C13.8844 26.6944 13.6704 26.7464 13.5144 26.8504C13.3584 26.9544 13.2804 27.1084 13.2804 27.3124C13.2804 27.4484 13.3164 27.5604 13.3884 27.6484C13.4644 27.7364 13.5784 27.8144 13.7304 27.8824C13.8824 27.9464 14.1044 28.0204 14.3964 28.1044C14.7364 28.1964 15.0044 28.2924 15.2004 28.3924C15.3964 28.4884 15.5424 28.6104 15.6384 28.7584C15.7344 28.9024 15.7824 29.0864 15.7824 29.3104C15.7824 29.6824 15.6384 29.9744 15.3504 30.1864C15.0624 30.3984 14.6744 30.5044 14.1864 30.5044ZM16.7368 30.4444C16.6968 30.4444 16.6628 30.4324 16.6348 30.4084C16.6108 30.3804 16.5988 30.3464 16.5988 30.3064V26.3884C16.5988 26.3444 16.6108 26.3104 16.6348 26.2864C16.6628 26.2584 16.6968 26.2444 16.7368 26.2444H19.2148C19.2548 26.2444 19.2868 26.2584 19.3108 26.2864C19.3388 26.3104 19.3528 26.3444 19.3528 26.3884V26.6164C19.3528 26.6564 19.3408 26.6904 19.3168 26.7184C19.2928 26.7424 19.2588 26.7544 19.2148 26.7544H17.1748V28.0684H19.0828C19.1228 28.0684 19.1548 28.0824 19.1788 28.1104C19.2068 28.1344 19.2208 28.1684 19.2208 28.2124V28.4344C19.2208 28.4744 19.2068 28.5084 19.1788 28.5364C19.1548 28.5604 19.1228 28.5724 19.0828 28.5724H17.1748V29.9344H19.2628C19.3068 29.9344 19.3408 29.9464 19.3648 29.9704C19.3888 29.9944 19.4008 30.0284 19.4008 30.0724V30.3064C19.4008 30.3464 19.3868 30.3804 19.3588 30.4084C19.3348 30.4324 19.3028 30.4444 19.2628 30.4444H16.7368ZM21.7385 30.5044C21.2025 30.5044 20.7945 30.3604 20.5145 30.0724C20.2385 29.7844 20.0905 29.3864 20.0705 28.8784C20.0665 28.7704 20.0645 28.5944 20.0645 28.3504C20.0645 28.1024 20.0665 27.9224 20.0705 27.8104C20.0905 27.3064 20.2405 26.9104 20.5205 26.6224C20.8005 26.3304 21.2065 26.1844 21.7385 26.1844C22.0945 26.1844 22.3965 26.2484 22.6445 26.3764C22.8925 26.5004 23.0805 26.6644 23.2085 26.8684C23.3365 27.0724 23.4065 27.2904 23.4185 27.5224V27.5344C23.4185 27.5664 23.4045 27.5944 23.3765 27.6184C23.3525 27.6384 23.3245 27.6484 23.2925 27.6484H22.9625C22.8825 27.6484 22.8325 27.6024 22.8125 27.5104C22.7445 27.2104 22.6225 27.0004 22.4465 26.8804C22.2705 26.7564 22.0345 26.6944 21.7385 26.6944C21.0505 26.6944 20.6945 27.0764 20.6705 27.8404C20.6665 27.9484 20.6645 28.1144 20.6645 28.3384C20.6645 28.5624 20.6665 28.7324 20.6705 28.8484C20.6945 29.6124 21.0505 29.9944 21.7385 29.9944C22.0345 29.9944 22.2705 29.9344 22.4465 29.8144C22.6265 29.6904 22.7485 29.4784 22.8125 29.1784C22.8245 29.1264 22.8425 29.0904 22.8665 29.0704C22.8905 29.0504 22.9225 29.0404 22.9625 29.0404H23.2925C23.3285 29.0404 23.3585 29.0524 23.3825 29.0764C23.4105 29.0964 23.4225 29.1244 23.4185 29.1604C23.4065 29.3964 23.3365 29.6164 23.2085 29.8204C23.0805 30.0244 22.8925 30.1904 22.6445 30.3184C22.3965 30.4424 22.0945 30.5044 21.7385 30.5044ZM25.6026 30.5044C25.2706 30.5044 24.9826 30.4524 24.7386 30.3484C24.4986 30.2444 24.3146 30.1084 24.1866 29.9404C24.0586 29.7684 23.9906 29.5844 23.9826 29.3884C23.9826 29.3564 23.9946 29.3284 24.0186 29.3044C24.0466 29.2764 24.0786 29.2624 24.1146 29.2624H24.4206C24.4966 29.2624 24.5486 29.3024 24.5766 29.3824C24.6126 29.5504 24.7146 29.6944 24.8826 29.8144C25.0546 29.9344 25.2946 29.9944 25.6026 29.9944C25.9346 29.9944 26.1846 29.9364 26.3526 29.8204C26.5206 29.7004 26.6046 29.5344 26.6046 29.3224C26.6046 29.1864 26.5626 29.0764 26.4786 28.9924C26.3986 28.9084 26.2786 28.8344 26.1186 28.7704C25.9586 28.7064 25.7186 28.6264 25.3986 28.5304C25.0866 28.4424 24.8386 28.3484 24.6546 28.2484C24.4706 28.1484 24.3326 28.0244 24.2406 27.8764C24.1486 27.7284 24.1026 27.5424 24.1026 27.3184C24.1026 27.1024 24.1606 26.9084 24.2766 26.7364C24.3966 26.5644 24.5666 26.4304 24.7866 26.3344C25.0066 26.2344 25.2686 26.1844 25.5726 26.1844C25.8846 26.1844 26.1526 26.2404 26.3766 26.3524C26.6006 26.4604 26.7706 26.5984 26.8866 26.7664C27.0026 26.9344 27.0646 27.1024 27.0726 27.2704C27.0726 27.3024 27.0606 27.3304 27.0366 27.3544C27.0166 27.3784 26.9866 27.3904 26.9466 27.3904H26.6286C26.5446 27.3904 26.4926 27.3524 26.4726 27.2764C26.4486 27.1084 26.3546 26.9704 26.1906 26.8624C26.0266 26.7504 25.8206 26.6944 25.5726 26.6944C25.3006 26.6944 25.0866 26.7464 24.9306 26.8504C24.7746 26.9544 24.6966 27.1084 24.6966 27.3124C24.6966 27.4484 24.7326 27.5604 24.8046 27.6484C24.8806 27.7364 24.9946 27.8144 25.1466 27.8824C25.2986 27.9464 25.5206 28.0204 25.8126 28.1044C26.1526 28.1964 26.4206 28.2924 26.6166 28.3924C26.8126 28.4884 26.9586 28.6104 27.0546 28.7584C27.1506 28.9024 27.1986 29.0864 27.1986 29.3104C27.1986 29.6824 27.0546 29.9744 26.7666 30.1864C26.4786 30.3984 26.0906 30.5044 25.6026 30.5044Z" fill="white"/>
</svg>
